<?xml version="1.0" encoding="UTF-8"?>
<svg width="125px" height="125px" viewBox="0 0 125 125" version="1.1" xmlns="http://www.w3.org/2000/svg" xmlns:xlink="http://www.w3.org/1999/xlink">
    <!-- Generator: Sketch 49.3 (51167) - http://www.bohemiancoding.com/sketch -->
    <title>Group 2</title>
    <desc>Created with Sketch.</desc>
    <defs></defs>
    <g id="Page-1" stroke="none" stroke-width="1" fill="none" fill-rule="evenodd">
        <g id="主页(指挥席）-L1920*930加状态栏" transform="translate(-96.000000, -104.000000)" fill="#FFFFFF">
            <g id="监控管理-copy" transform="translate(38.000000, 66.000000)">
                <g id="频率范围" transform="translate(58.000000, 38.000000)">
                    <circle id="Oval" fill-opacity="0.45" cx="62.5" cy="62.5" r="62.5"></circle>
                    <g id="频率" transform="translate(36.000000, 46.000000)" fill-rule="nonzero">
                        <path d="M50.0329457,16.5953003 L50.0329457,16.5955575 C50.0329455,17.6448984 50.8836029,18.4955556 51.9329438,18.4955556 C52.9822847,18.4955558 53.8329419,17.6448984 53.8329419,16.5955575 C53.8329419,16.5953858 53.8329419,16.5952141 53.8329419,16.5950425 L53.8329419,16.5953 C53.8329419,15.545959 52.9822847,14.6953019 51.9329437,14.6953019 C50.8838052,14.6953019 50.0332318,15.545645 50.0329456,16.5947835 L50.0329457,16.5953003 Z M25.6814057,32.3908863 C24.9444076,32.3904851 24.3050153,31.8819361 24.1387737,31.1639301 L19.0224693,8.91788425 L14.966363,24.0047056 C14.735457,24.8503896 13.8627052,25.3487689 13.0170211,25.1178628 C12.5200971,24.9821823 12.1199133,24.613802 11.9436417,24.1297837 L9.68032361,17.8461063 L1.86590443,17.8461063 C0.99090509,17.8461063 0.281582044,17.1367798 0.281582044,16.261784 C0.281582082,15.3867847 0.99090858,14.6774617 1.86590436,14.6774617 L10.7911252,14.6774617 C11.4582099,14.6774617 12.0567983,15.0943901 12.2801522,15.7257347 L13.2152616,18.3136628 L17.6108658,1.96415915 C17.4210014,1.11169412 17.9581458,0.266718499 18.8106111,0.0768537466 C19.6630761,-0.113010657 20.5080517,0.424133773 20.6979165,1.27659908 C20.7526186,1.52220389 20.7479216,1.77731659 20.6842161,2.0207409 L25.9255987,24.8028361 L31.1312446,8.41462944 C30.9228129,7.56651289 31.4413802,6.71001011 32.289495,6.50157907 C33.1376115,6.29314732 33.9941143,6.81171464 34.2025454,7.65982944 C34.2709695,7.93825051 34.2624129,8.23003443 34.1777905,8.50396749 L35.821675,15.0080323 L43.564621,15.0080323 C44.4396202,14.9543572 45.1924554,15.620172 45.2461301,16.4951678 C45.2998052,17.370167 44.6339904,18.1230022 43.7589947,18.1766769 C43.6942639,18.1806477 43.629351,18.1806477 43.5646203,18.1766769 L34.5887609,18.1766769 C33.8639637,18.1761382 33.2315861,17.6846982 33.0520863,16.9824771 L32.4683894,14.6715078 L27.1912702,31.2890361 C26.9829571,31.9468934 26.3714428,32.3931649 25.681398,32.3909139 L25.6814057,32.3908863 Z" id="Shape"></path>
                    </g>
                </g>
            </g>
        </g>
    </g>
</svg>