<?xml version="1.0" encoding="UTF-8"?>
<svg width="37px" height="48px" viewBox="0 0 37 48" version="1.1" xmlns="http://www.w3.org/2000/svg" xmlns:xlink="http://www.w3.org/1999/xlink">
    <!-- Generator: Sketch 49.3 (51167) - http://www.bohemiancoding.com/sketch -->
    <title>卫星</title>
    <desc>Created with Sketch.</desc>
    <defs></defs>
    <g id="Page-1" stroke="none" stroke-width="1" fill="none" fill-rule="evenodd">
        <g id="主页(指挥席）-L1920*930加状态栏" transform="translate(-1305.000000, -293.000000)" fill="#FFFFFF" fill-rule="nonzero">
            <g id="频率管理-copy-6" transform="translate(1274.000000, 285.000000)">
                <g id="Group-13">
                    <g id="卫星" transform="translate(31.000000, 8.000000)">
                        <path d="M20.2562079,44.9985325 L17.5265463,44.9985325 L17.5265463,40.9680933 L17.5265463,40.9680695 C17.5276846,40.1405754 16.8803855,39.4688066 16.0807594,39.4676274 C16.0792546,39.4676252 16.0777497,39.4676254 16.0762449,39.4676281 C15.2767183,39.4662387 14.6274828,40.1358451 14.6261398,40.963241 C14.6261372,40.9648583 14.6261371,40.9664755 14.6261395,40.9680928 L14.6261395,44.998532 L11.8968261,44.998532 C11.0972045,44.9971427 10.4478921,45.6668333 10.4465491,46.4943228 C10.4465465,46.4959401 10.4465464,46.4975573 10.4465488,46.4991746 L10.4465488,46.4992095 C10.4452248,47.3266991 11.0923749,47.9986269 11.8919965,47.9999979 C11.8936172,48.0000007 11.8952379,48.0000007 11.8968586,47.9999978 L20.2515176,47.9999978 C21.0511438,48.0011889 21.700298,47.3313409 21.701451,46.5038467 C21.7014532,46.5022894 21.701453,46.5007321 21.7014505,46.4991748 C21.7066555,45.673805 21.0591559,44.9985315 20.2562063,44.9985315 L20.2562079,44.9985325 Z M28.2581665,12.588554 C29.2472832,11.5651431 29.2472832,9.90344913 28.2581665,8.87447439 C27.2688735,7.85070313 25.6631415,7.85070313 24.674373,8.87447439 C23.6849081,9.89788533 23.6849081,11.5594015 24.674373,12.588554 C25.6582851,13.6123253 27.2640171,13.6123253 28.2581665,12.588554 Z M36.3274095,31.5727975 L34.5303059,29.7128845 C34.4989026,29.6699731 34.4680199,29.6218549 34.4267269,29.5789435 L22.2191774,16.9515127 L23.1359453,15.997586 C23.7003383,15.4133453 23.7003383,14.4592408 23.1359453,13.8751779 C22.5715523,13.2909372 21.6495798,13.2909372 21.0851868,13.8751779 L20.1633862,14.8291046 L7.96049418,2.1962924 C7.92405942,2.15876738 7.8827667,2.13201488 7.84633184,2.09969667 L6.24077169,0.438180536 C5.67637867,-0.146060179 4.75457803,-0.146060179 4.18984135,0.438180536 C3.62544833,1.02260375 3.62544833,1.97652573 4.18984135,2.56058863 L4.91524212,3.31108811 C1.74021031,7.10022049 0,11.8867277 0,16.9513732 C0,22.5253705 2.09742801,27.7673649 5.90415984,31.706804 C9.71090071,35.6458548 14.7758415,37.816732 20.1631596,37.816732 C25.0572397,37.816732 29.6821822,36.0210951 33.3438909,32.7357554 L34.271068,33.695068 C34.5423488,33.9776334 34.9117211,34.1359377 35.2966212,34.1345957 C35.669644,34.1345957 36.0374639,33.9898818 36.3219982,33.6950679 C36.8917677,33.1108272 36.8917677,32.1621087 36.3273767,31.5728377 L36.3274095,31.5727975 Z M29.335395,32.0925843 L14.0303672,16.2548571 C13.6538703,15.8642149 13.0426477,15.8633853 12.6651588,16.2530037 C12.664561,16.2536206 12.663964,16.2542384 12.6633678,16.254857 C12.2858817,16.6446161 12.2851898,17.2772572 12.6618225,17.6678974 C12.662337,17.6684311 12.6628521,17.6689641 12.6633678,17.6694966 L27.5745468,33.1000232 C25.2906081,34.2255946 22.7734802,34.8204295 20.1682449,34.8204295 C15.5582243,34.8204295 11.2231744,32.9610546 7.96051464,29.5895252 C4.69752026,26.2129887 2.90043926,21.7268844 2.90043926,16.9512849 C2.90043926,14.255408 3.47524147,11.6505641 4.56290626,9.28700356 L8.89795166,13.7729535 C9.07904533,13.9611278 9.32490737,14.0672264 9.58153943,14.067947 C9.83016339,14.067947 10.0787882,13.9711721 10.2649508,13.7729535 C10.6424849,13.3829637 10.6430347,12.7500948 10.2661785,12.359403 C10.2657697,12.3589791 10.2653604,12.3585556 10.2649508,12.3581325 L5.53153024,7.46479947 L5.53153123,7.46479784 C5.96228606,6.75480785 6.44173797,6.07773737 6.96619445,5.43880393 L31.2931634,30.6134609 L31.2931631,30.6134612 C30.6769276,31.15606 30.0225372,31.6504611 29.3353999,32.0925559 L29.335395,32.0925843 Z" id="Shape"></path>
                    </g>
                </g>
            </g>
        </g>
    </g>
</svg>