<?xml version="1.0" encoding="UTF-8"?>
<svg width="125px" height="125px" viewBox="0 0 125 125" version="1.1" xmlns="http://www.w3.org/2000/svg" xmlns:xlink="http://www.w3.org/1999/xlink">
    <!-- Generator: Sketch 49.3 (51167) - http://www.bohemiancoding.com/sketch -->
    <title>台站总数</title>
    <desc>Created with Sketch.</desc>
    <defs></defs>
    <g id="Page-1" stroke="none" stroke-width="1" fill="none" fill-rule="evenodd">
        <g id="主页(指挥席）-L1920*930加状态栏" transform="translate(-728.000000, -104.000000)" fill="#FFFFFF">
            <g id="监控管理-copy-2" transform="translate(656.000000, 66.000000)">
                <g id="台站总数" transform="translate(72.000000, 38.000000)">
                    <circle id="Oval" fill-opacity="0.45" cx="62.5" cy="62.5" r="62.5"></circle>
                    <g id="监测台站" transform="translate(36.000000, 36.000000)" fill-rule="nonzero">
                        <path d="M52.4380421,9.65911781 C52.2241776,9.69765602 52.2334087,6.00857388 49.4347724,3.25092882 C46.72225,0.406976229 43.0330387,0.360239765 43.0741591,0.147859975 C42.9582862,-0.0902119598 46.9925339,-0.439315274 50.0142658,2.67911722 C53.0875111,5.75229797 52.6728218,9.77860564 52.4380421,9.65911781 Z M49.7518574,9.6848745 C49.5991892,9.71456894 49.606161,7.05375357 47.588553,5.06771205 C45.6349816,3.01976407 42.9764902,2.98574457 43.007282,2.83217268 C42.9224592,2.66188153 45.8263171,2.40909148 48.0088584,4.65431382 C50.2213523,6.86932529 49.9231168,9.77156935 49.7517928,9.6848745 L49.7518574,9.6848745 Z M44.290921,16.110751 C46.3863155,13.8685627 46.2662467,10.3508046 44.0224445,8.25579736 C41.7749628,6.15924088 38.2574629,6.280278 36.1613583,8.5237574 C34.6610145,10.1328087 34.2980968,12.3949439 35.0385857,14.3188208 L20.4499017,29.9466811 C19.5366686,30.9278886 19.5874719,32.4641885 20.5664201,33.3778735 C21.5464656,34.2913003 23.0836693,34.2392704 23.9960632,33.259354 L38.5853282,17.6291052 C40.5551669,18.236421 42.7872204,17.7192859 44.290921,16.110751 Z M9.1982915,17.7123787 C4.03391218,23.0016683 5.91854075,33.2195247 13.408511,40.5308765 C20.8966739,47.8436484 31.1586846,49.4816195 36.3216437,44.1908452 C40.8645701,39.5357255 39.9519825,31.0739078 34.5668315,24.1261838 L27.3713526,31.8362157 L33.5944032,31.2810588 C34.4437287,31.3963507 35.2377967,32.1544626 35.3881409,32.9691231 C35.5398408,33.7856556 34.9990147,34.3393923 34.1709917,34.2137074 L24.5121009,34.8277368 C24.480018,34.8522669 24.4425126,34.8767326 24.409526,34.9025538 L32.9453215,39.1873322 C33.6289391,39.8537787 33.8019415,40.787927 33.3300581,41.270849 C32.8574647,41.7549974 31.9166674,41.6043304 31.2124573,40.9338171 L22.3897231,36.9140938 L26.0421391,42.3648954 C26.2967366,43.1089347 25.7783105,43.6575072 24.9137504,43.5739755 C24.0521598,43.4885071 23.095547,42.9011382 22.7505751,42.275102 L18.9074047,37.1513911 L16.2418124,40.2793129 C15.9726258,40.5874896 15.1410524,40.3872458 14.4298061,39.7755403 C13.7190761,39.1669334 13.3930828,38.3895847 13.6523282,38.0876051 L16.2282562,35.0500577 L10.9216018,31.9656447 C10.3495965,31.5992412 9.79928112,30.5695542 9.72168826,29.6379881 C9.64461183,28.7086167 10.1130739,28.2074907 10.7296854,28.5513653 L15.9207251,31.8522249 L12.3705613,22.9212997 C11.8261848,22.114902 11.7094082,21.1245925 12.1867785,20.6357316 C12.6604048,20.1509376 13.5804806,20.3152254 14.1675267,21.0588128 L17.7857295,29.8094412 L19.0903482,19.7020997 C19.0407714,18.8268239 19.6091617,18.2546895 20.4202718,18.3911548 C21.2299617,18.5256835 21.9574108,19.3305965 21.9805209,20.2179438 L21.1687653,26.6290377 L28.701728,18.5615105 C21.7521965,13.7353251 13.6151456,13.1903675 9.1982915,17.7123787 Z M24.4096551,34.977001 C24.442448,34.9237216 24.4802762,34.8794075 24.5108744,34.8267685 L24.2899736,34.851487 L24.4096551,34.977001 Z M36.3216437,44.1907806 C31.1586846,49.4815549 20.896803,47.8446813 13.408511,40.5308765 C5.91854075,33.2195892 4.03384763,23.0016683 9.1982915,17.7123787 C13.6140482,13.1906258 21.7521965,13.7352605 28.7019862,18.5613814 L30.941076,16.1606506 C22.152555,9.64872475 11.5932125,8.749887 5.94378102,14.5348801 C-0.460986648,21.0979966 1.876353,33.7633202 11.163676,42.8315499 C20.4504826,51.8966166 33.1740332,53.928749 39.5767352,47.3660198 C45.3756717,41.4304243 44.0049506,30.4795672 36.8021772,21.7355878 L34.5668315,24.1262484 C39.9519825,31.0739078 40.8646346,39.5357255 36.3216437,44.1908452 L36.3216437,44.1907806 Z M9.44862853,45.4056705 C6.68168782,42.7013463 4.53484445,39.6808409 3.0507035,36.5981708 L3.05070297,36.5981712 C2.77072638,36.7953416 2.50576161,37.0130096 2.25799057,37.2493831 C-1.10477551,40.4996331 -0.660972761,46.417993 3.25204418,50.4718003 C7.16557754,54.5290935 13.0652815,55.182242 16.4320499,51.9355425 C16.7215043,51.6550281 16.9865484,51.3503773 17.2243105,51.0248914 C14.5130146,49.6450038 11.8642061,47.7667014 9.44862806,45.4055417 L9.44862853,45.4056705 Z M4.00421727,49.5098941 C-0.824356675,44.9372087 0.866160632,39.698787 2.91217201,38.5121068 C0.964410493,41.394404 1.65855027,45.2415767 4.00415272,49.5098941 L4.00421727,49.5098941 Z" id="Shape"></path>
                    </g>
                </g>
            </g>
        </g>
    </g>
</svg>