<?xml version="1.0" encoding="UTF-8"?>
<svg width="125px" height="125px" viewBox="0 0 125 125" version="1.1" xmlns="http://www.w3.org/2000/svg" xmlns:xlink="http://www.w3.org/1999/xlink">
    <!-- Generator: Sketch 49.3 (51167) - http://www.bohemiancoding.com/sketch -->
    <title>监测站总数</title>
    <desc>Created with Sketch.</desc>
    <defs></defs>
    <g id="Page-1" stroke="none" stroke-width="1" fill="none" fill-rule="evenodd">
        <g id="主页(指挥席）-L1920*930加状态栏" transform="translate(-1346.000000, -104.000000)" fill="#FFFFFF">
            <g id="监控管理-copy-3" transform="translate(1274.000000, 66.000000)">
                <g id="监测站总数" transform="translate(72.000000, 38.000000)">
                    <circle id="Oval" fill-opacity="0.45" cx="62.5" cy="62.5" r="62.5"></circle>
                    <g id="基站1" transform="translate(36.000000, 37.000000)" fill-rule="nonzero">
                        <path d="M16.1373423,19.5824076 C16.9824255,18.7144047 16.9824255,17.3312477 16.1373423,16.4632448 L16.1373421,16.4632447 C13.9785936,14.2079899 13.9785936,10.6527371 16.1373424,8.39749687 C16.9824256,7.52949405 16.9824256,6.14633698 16.1373424,5.27833415 C15.325125,4.43907306 13.9863372,4.41714799 13.1470713,5.2293639 C13.1304817,5.24541894 13.1141561,5.26174455 13.0981011,5.2783341 L13.098101,5.27833424 C11.2431061,7.19545581 10.2126181,9.76276562 10.227348,12.4303515 L10.2273477,12.429528 C10.228268,15.0940912 11.2562589,17.655739 13.097533,19.5817878 C13.925116,20.4210489 15.2763582,20.4305195 16.1156241,19.6029378 C16.1227234,19.5959372 16.1297736,19.5888871 16.1367741,19.5817877 L16.1373423,19.5824076 Z M7.82963759,0.6449493 C6.97495765,-0.212806654 5.58675475,-0.215295604 4.72899883,0.639385906 C4.72714103,0.641237049 4.72528655,0.643091525 4.72343542,0.644949314 L4.72343619,0.64494851 C-1.57447847,7.22979583 -1.57447847,17.6050264 4.72343465,24.1898738 C5.52740891,25.0386782 6.86724954,25.0750227 7.71605882,24.2710504 C7.74384661,24.2447303 7.77091565,24.2176617 7.79723544,24.1898738 C8.64182856,23.2957491 8.64182856,21.8978718 7.79723543,21.0037472 L7.79723531,21.003747 C3.20359098,16.1835647 3.20359098,8.60591775 7.79723555,3.78570141 C8.662012,2.92249209 8.6764217,1.52580348 7.82963744,0.64493866 L7.82963759,0.6449493 Z M27.0543681,17.9256311 L27.054368,17.9256311 C30.0869075,17.936368 32.5539753,15.4867132 32.5646976,12.454164 C32.5754346,9.42162443 30.1257798,6.95455669 27.0932305,6.94383431 C24.060691,6.93309738 21.5936233,9.38275219 21.5829009,12.4153014 C21.582878,12.4217702 21.5828665,12.428239 21.5828665,12.4347078 L21.5828662,12.4348327 C21.5769601,15.4589059 24.0217792,17.9161974 27.0458428,17.9256583 L27.0543681,17.9256311 Z M49.2449266,0.67085766 C48.4425633,-0.177830233 47.1041199,-0.2153828 46.255432,0.586978719 C46.2525227,0.589729153 46.2496213,0.592487835 46.2467278,0.595254742 L46.1711248,0.670857664 L46.171125,0.670857515 C45.3265319,1.56498217 45.3265319,2.96285947 46.1711247,3.85698412 L46.1711246,3.85698397 C50.7647689,8.67716635 50.7647689,16.2548133 46.1711248,21.0750296 L46.171125,21.0750295 C45.3265318,21.9691541 45.3265318,23.3670314 46.1711247,24.2611561 C47.0258045,25.1189119 48.4140074,25.1214009 49.2717633,24.2667196 C49.2736211,24.2648684 49.2754756,24.263014 49.2773268,24.2611562 L49.2773272,24.2611557 C52.3199292,21.0893661 54.0121041,16.8600981 53.9971122,12.4649438 L53.9971121,12.4648876 C53.9837957,8.06964599 52.2825366,3.84749551 49.2448882,0.670858931 L49.2449266,0.67085766 Z M27.045732,22.3278689 L27.0457322,22.3278689 C25.6316501,22.3287264 24.2393911,21.9791773 22.9934125,21.3104709 L12.3549743,49.6788632 L17.3879885,49.6788632 L20.2997825,46.2896907 L33.8003181,46.2896907 L36.6386711,49.6788632 L41.6716853,49.6788632 L31.0656568,21.3104709 L31.0656576,21.3104705 C29.8297998,21.9751751 28.4490103,22.3246372 27.0457428,22.3278684 L27.045732,22.3278689 Z M27.0111707,23.9544141 L30.4219431,36.154583 L23.6695163,36.154583 L27.0111707,23.9544141 Z M20.2997654,42.9005085 L23.6760031,39.5113361 L30.4305647,39.5113361 L33.8089372,42.9005085 L20.2997654,42.9005085 Z M37.8266978,5.28045456 C36.9816147,6.14845742 36.9816147,7.53161449 37.8266979,8.39961732 L37.8266982,8.39961762 C39.9854467,10.6548724 39.9854467,14.2101252 37.8266976,16.4653654 C36.9816144,17.3333683 36.9816144,18.7165254 37.8266977,19.5845282 L37.8266978,19.5845283 C38.6457998,20.4237554 39.990138,20.4400718 40.8293651,19.6209733 C40.8314794,19.6189097 40.8335894,19.6168417 40.8356951,19.6147693 L40.8659363,19.5845281 L40.865936,19.5845283 C44.6932509,15.5853887 44.6932509,9.28173438 40.8659365,5.28262868 C40.0354475,4.44456604 38.6828128,4.43842372 37.8447501,5.26891744 C37.843772,5.26988676 37.8427947,5.27085702 37.8418185,5.27182823 L37.8266978,5.28045456 Z" id="Shape"></path>
                    </g>
                </g>
            </g>
        </g>
    </g>
</svg>